<svg width="50" height="57" viewBox="0 0 50 57" fill="none" xmlns="http://www.w3.org/2000/svg">
<path d="M22.7201 7.72009C14.5263 7.94312 7.82444 14.4065 7.29057 22.6154C7.27811 22.8109 7.43016 22.9785 7.62599 22.9826L25.23 23.3545C25.5763 23.3618 25.7132 22.9102 25.4221 22.721C22.6379 20.9153 20.8231 17.7473 20.8984 14.1787C20.9456 11.9481 21.7237 9.9056 22.9984 8.27488C23.1767 8.04688 23.009 7.71207 22.7201 7.72009Z" fill="white" stroke="white" stroke-width="1.81225" stroke-miterlimit="10"/>
<path d="M40.5758 34.2805C41.8941 39.8322 38.4622 45.4015 32.9104 46.7197C27.3587 48.038 21.7895 44.6061 20.4712 39.0544C19.153 33.5026 22.5849 27.9334 28.1366 26.6151C33.6883 25.2969 39.2575 28.7288 40.5758 34.2805ZM24.9124 37.9998C25.6483 41.0987 28.757 43.0144 31.8559 42.2785C34.9548 41.5427 36.8704 38.434 36.1346 35.3351C35.3988 32.2362 32.2901 30.3205 29.1912 31.0564C26.0922 31.7922 24.1766 34.9009 24.9124 37.9998Z" fill="white"/>
<path d="M33.1426 40.1761C32.7527 40.8225 31.8929 41.0312 31.3688 40.4879C30.8619 39.9625 30.4556 39.3402 30.1762 38.6527C29.722 37.5348 29.6269 36.3022 29.9047 35.1322C30.1825 33.9622 30.8189 32.9153 31.7222 32.142C32.6255 31.3687 33.7491 30.909 34.9315 30.829C36.1138 30.7489 37.2938 31.0528 38.3017 31.6968C39.3095 32.3407 40.0933 33.2916 40.5401 34.4125C40.9869 35.5335 41.0738 36.7667 40.7882 37.9346C40.6128 38.6519 40.3025 39.3219 39.8787 39.9098C39.4384 40.5205 38.5603 40.4351 38.0834 39.8526L37.5369 39.1849C37.0701 38.6147 37.2066 37.7608 37.3816 37.045V37.045C37.4883 36.6088 37.4559 36.1483 37.289 35.7296C37.1221 35.311 36.8294 34.9558 36.453 34.7153C36.0766 34.4748 35.6359 34.3614 35.1943 34.3912C34.7527 34.4211 34.3331 34.5928 33.9957 34.8816C33.6584 35.1704 33.4207 35.5614 33.3169 35.9984C33.2132 36.4353 33.2487 36.8957 33.4184 37.3132V37.3132C33.695 37.994 33.9571 38.8256 33.5776 39.4548L33.1426 40.1761Z" fill="white"/>
<circle cx="12.997" cy="15.2684" r="2.17399" transform="rotate(1.21009 12.997 15.2684)" fill="#474BAE"/>
<path d="M25.5835 15.3489C25.5453 13.8045 26.7719 12.5013 28.3064 12.6796C31.4444 13.0441 34.4649 14.1513 37.1104 15.9263C40.5338 18.2233 43.1605 21.5254 44.6287 25.3776C46.0968 29.2298 46.3342 33.4426 45.308 37.4353C44.2818 41.4281 42.0426 45.0043 38.8989 47.6713C35.7552 50.3382 31.8618 51.9645 27.7551 52.3261C23.6485 52.6877 19.5308 51.7669 15.9694 49.6904C12.408 47.6139 9.57824 44.484 7.87006 40.7321C6.55002 37.8326 5.94997 34.672 6.10186 31.5165C6.17613 29.9735 7.66185 28.9758 9.17933 29.2652V29.2652C10.6968 29.5546 11.6631 31.0257 11.6735 32.5705C11.6869 34.5769 12.1215 36.569 12.9615 38.414C14.1902 41.1127 16.2256 43.364 18.7872 44.8575C21.3488 46.3511 24.3106 47.0135 27.2644 46.7534C30.2182 46.4933 33.0186 45.3235 35.2798 43.4052C37.541 41.487 39.1516 38.9147 39.8898 36.0428C40.6279 33.1709 40.4572 30.1407 39.4011 27.3699C38.3451 24.5991 36.4558 22.224 33.9934 20.5718C32.31 19.4423 30.4154 18.6888 28.438 18.3485C26.9156 18.0864 25.6217 16.8933 25.5835 15.3489V15.3489Z" fill="white"/>
</svg>
